<svg id="Capa_1" data-name="Capa 1" xmlns="http://www.w3.org/2000/svg" viewBox="0 0 15 11.42"><defs><style>.cls-1{fill:#8a8a8a;}</style></defs><title>envelope15x15</title><path class="cls-1" d="M247.32,235.94H236a1.83,1.83,0,0,0-1.83,1.84v7.74a1.83,1.83,0,0,0,1.83,1.84h11.34a1.83,1.83,0,0,0,1.83-1.84v-7.74A1.84,1.84,0,0,0,247.32,235.94Zm1,9.58a1,1,0,0,1-1,1H236a1,1,0,0,1-1-1v-7.74a1,1,0,0,1,1-1h11.34a1,1,0,0,1,1,1v7.74Z" transform="translate(-234.15 -235.94)"/><path class="cls-1" d="M243.61,241.55l3.67-3.29a.42.42,0,0,0,0-.59.41.41,0,0,0-.59,0l-5.06,4.54-1-.88h0l-.06-.06-4-3.59a.42.42,0,1,0-.56.62l3.71,3.32L236,245a.43.43,0,0,0,0,.6.44.44,0,0,0,.31.13.43.43,0,0,0,.28-.11l3.75-3.51,1,.91a.42.42,0,0,0,.28.1.43.43,0,0,0,.28-.11l1.05-.93,3.73,3.54a.42.42,0,0,0,.59,0,.41.41,0,0,0,0-.59Z" transform="translate(-234.15 -235.94)"/></svg>