<?xml version="1.0" encoding="utf-8"?>
<!-- Generator: Adobe Illustrator 19.0.0, SVG Export Plug-In . SVG Version: 6.00 Build 0)  -->
<svg version="1.1" id="Capa_1" opacity="0.5" xmlns="http://www.w3.org/2000/svg" xmlns:xlink="http://www.w3.org/1999/xlink"
	 x="0px" y="0px" viewBox="-304 106 350 350" style="enable-background:new -304 106 350 350;" xml:space="preserve">
<g>
	<path d="M-129,277.2c38.9,0,70.5-38.3,70.5-85.6c0-47.3-10.4-85.6-70.5-85.6s-70.5,38.3-70.5,85.6
		C-199.5,238.9-167.9,277.2-129,277.2z"/>
	<path d="M-262.1,407.9C-262.1,405-262.1,407-262.1,407.9L-262.1,407.9z"/>
	<path d="M4.1,410.1C4.1,409.3,4.1,404.6,4.1,410.1L4.1,410.1z"/>
	<path d="M3.9,404.4C2.6,322.1-8.1,298.6-90.4,283.7c0,0-11.6,14.8-38.6,14.8s-38.6-14.8-38.6-14.8c-81.4,14.7-92.8,37.8-94.3,118
		c-0.1,6.5-0.2,6.9-0.2,6.1c0,1.4,0,4.1,0,8.7c0,0,19.6,39.5,133.1,39.5c113.5,0,133.1-39.5,133.1-39.5c0-3,0-5,0-6.4
		C4.1,410.6,4,409.7,3.9,404.4z"/>
</g>
</svg>
