<svg id="Capa_1" data-name="Capa 1" xmlns="http://www.w3.org/2000/svg" viewBox="0 0 784.11 170"><defs><style>.cls-1{fill:#4554d8;}.cls-2,.cls-4{fill:#fff;}.cls-3,.cls-4{isolation:isolate;}.cls-4{font-size:18px;font-family:MyriadPro-Bold, Myriad Pro;font-weight:700;}.cls-5{letter-spacing:-0.01em;}.cls-6{letter-spacing:0em;}.cls-7{letter-spacing:-0.08em;}.cls-8{letter-spacing:0em;}.cls-9{fill:#8d0a15;opacity:0.85;}</style></defs><title>upload-file6</title><rect class="cls-1" y="-0.03" width="784.11" height="170.06"/><path class="cls-2" d="M703.39,55.25l-17.73-4.33a4.84,4.84,0,0,0-5.85,3.51l-8.56,34.71A4.84,4.84,0,0,0,674.78,95L699,100.9a4.84,4.84,0,0,0,5.84-3.52l7-28.29ZM699.72,98l-24.21-5.92a1.83,1.83,0,0,1-1.36-2.27l8.56-34.7A1.82,1.82,0,0,1,685,53.76l16.67,4.05-1.49,6.12A3.36,3.36,0,0,0,702.62,68l6,1.44L702,96.56A1.91,1.91,0,0,1,699.72,98Z"/><path class="cls-2" d="M694.74,68.89a1,1,0,0,0-1.3-.33L687,72.46a.93.93,0,0,0-.43,1,.89.89,0,0,0,.72.77l2.27.53-1.69,6.66a1.31,1.31,0,0,0,.92,1.54l3.33.82a1.31,1.31,0,0,0,1.55-.92l1.64-6.7,2.27.53a1,1,0,0,0,1-.33,1,1,0,0,0,0-1.07Z"/><g class="cls-3"><text class="cls-4" transform="translate(526.83 85.38)">Upload <tspan class="cls-5" x="62.24" y="0">y</tspan><tspan class="cls-6" x="71.39" y="0">our files </tspan></text><text class="cls-4" transform="translate(526.83 114.09)">and <tspan class="cls-5" x="34.42" y="0">w</tspan><tspan x="47.81" y="0">e</tspan><tspan class="cls-7" x="57.31" y="0"> </tspan><tspan class="cls-8" x="59.58" y="0">‘</tspan><tspan x="64.33" y="0">ll get it done</tspan></text></g><rect class="cls-9" width="784.12" height="170"/></svg>