<svg id="Capa_1" data-name="Capa 1" xmlns="http://www.w3.org/2000/svg" viewBox="0 0 784.11 170"><defs><style>.cls-1{fill:#4554d8;}.cls-2,.cls-4,.cls-5,.cls-7,.cls-8{fill:#fff;}.cls-3,.cls-4,.cls-5,.cls-7,.cls-8,.cls-9{isolation:isolate;}.cls-4,.cls-5,.cls-7,.cls-8{font-size:18px;font-family:MyriadPro-Bold, Myriad Pro;font-weight:700;}.cls-5{letter-spacing:-0.02em;}.cls-6{letter-spacing:0em;}.cls-7{letter-spacing:-0.01em;}.cls-8{letter-spacing:-0.08em;}.cls-9{fill:#8d0a15;opacity:0.85;}</style></defs><title>upload_book_banner</title><rect class="cls-1" y="-0.03" width="784.11" height="170.06"/><path class="cls-2" d="M656.3,50.23l-22.06-5.4A6,6,0,0,0,627,49.21L616.34,92.36a6,6,0,0,0,4.38,7.25L650.83,107a6,6,0,0,0,7.27-4.38h0l8.66-35.17Zm-4.57,53.15L621.62,96a2.26,2.26,0,0,1-1.71-2.7l0-.12L630.58,50a2.26,2.26,0,0,1,2.7-1.71l.12,0,20.74,5L652.27,61a4.19,4.19,0,0,0,3.07,5l7.51,1.8-8.23,33.73a2.39,2.39,0,0,1-2.82,1.87Z"/><path class="cls-2" d="M645.54,67.19a1.25,1.25,0,0,0-1.62-.42l-8,4.85a1.18,1.18,0,0,0-.54,1.2,1.15,1.15,0,0,0,.9,1l2.82.66L637,82.71a1.63,1.63,0,0,0,1.14,1.92l4.15,1a1.63,1.63,0,0,0,1.92-1.13l2-8.33,2.83.65a1.28,1.28,0,0,0,1.26-.41,1.18,1.18,0,0,0,.06-1.32Z"/><g class="cls-3"><text class="cls-4" transform="translate(444.83 91.38)">Upload </text><text class="cls-5" transform="translate(517.45 91.38)">y</text><text class="cls-4" transform="translate(528.12 91.38)">our <tspan class="cls-6" x="31.36" y="0">bo</tspan><tspan x="52.61" y="0">ok</tspan></text></g><g class="cls-3"><text class="cls-4" transform="translate(444.83 120.09)">and </text><text class="cls-7" transform="translate(484.98 120.09)">w</text><text class="cls-4" transform="translate(500.61 120.09)">e</text><text class="cls-8" transform="translate(511.69 120.09)"> </text><text class="cls-4" transform="translate(514.34 120.09)">‘</text><text class="cls-4" transform="translate(519.88 120.09)">ll get it done</text></g><rect class="cls-9" width="784.12" height="170"/></svg>