<?xml version="1.0"?>
<svg xmlns="http://www.w3.org/2000/svg" height="512px" viewBox="-95 0 512 512" width="512px" class=""><g><path d="m160.5 210c8.273438 0 15-6.722656 15-15s-6.726562-15-15-15c-8.277344 0-15 6.722656-15 15s6.722656 15 15 15zm0 0" data-original="#000000" class="active-path" data-old_color="#ffffff" fill="#ffffff"/><path d="m205.5 195c0 24.898438-20.101562 45-45 45-24.902344 0-45-20.101562-45-45 0-15 7.199219-27.898438 18.300781-35.699219l-69.300781-69.300781h-39v422h270v-422h-38.789062l64.394531-68.789062-21.210938-21.210938-85.605469 90h-107.789062l60.597656 60.597656c21.902344 3.003906 38.402344 21.902344 38.402344 44.402344zm15 225h-120v-30h120zm0-60h-120v-30h120zm0-60h-120v-30h120zm0 0" data-original="#000000" class="active-path" data-old_color="#ffffff" fill="#ffffff"/><path d="m0 21.105469 64.5 68.894531h42l-85.503906-89.894531zm0 0" data-original="#000000" class="active-path" data-old_color="#ffffff" fill="#ffffff"/></g> </svg>
